PathFileType	4	(X/Y/Z)	C:\Users\WrightLab\Desktop\Jo\P5V29.trc
DataRate	CameraRate	NumFrames	NumMarkers	Units	OrigDataRate	OrigDataStartFrame	OrigNumFrames
100.00	100.00	       18	19	mm	100.00	380	       759
Frame#	Time	Headset_Front			Headset_Back			Headset_Left			Headset_Right			Left_Shoulder			Right_Shoulder			Sternum			C7			Left Elbow			Right Elbow			Left Wrist			Right Wrist			Left ASIS			Right ASIS			S2			Left Knee			Right Knee			Left Ankle			Right Ankle			
		X1	Y1	Z1	X2	Y2	Z2	X3	Y3	Z3	X4	Y4	Z4	X5	Y5	Z5	X6	Y6	Z6	X7	Y7	Z7	X8	Y8	Z8	X9	Y9	Z9	X10	Y10	Z10	X11	Y11	Z11	X12	Y12	Z12	X13	Y13	Z13	X14	Y14	Z14	X15	Y15	Z15	X16	Y16	Z16	X17	Y17	Z17	X18	Y18	Z18	X19	Y19	Z19	

380	3.790	-259.84973	1434.07080	37.44405				-166.80832	1583.68274	-79.04085	-371.69366	1532.58691	16.05398	-134.17848	1531.47119	-303.53964	-470.16214	1420.14868	-93.87714	-253.84248	1306.10779	-160.11893	-383.28281	1532.12756	-292.36136	-41.17701	1253.40332	-378.65744	-591.89636	1163.59875	-60.78407	-25.83565	1023.20483	-280.16287	-520.62854	1018.97955	122.74142	-104.79337	946.24963	-258.93832	-341.83615	920.15961	-103.20901	-338.24344	1001.81787	-434.33923	-82.05321	508.94037	-292.40601	-420.46167	491.71445	-148.85985	-140.41780	116.48148	-421.89316	-414.53372	94.58459	-196.71887	
381	3.800	-256.31174	1433.92834	38.60082				-164.38428	1583.25806	-76.97606	-370.77893	1533.45813	17.16063	-134.58659	1531.64111	-303.32553	-467.63724	1420.23022	-89.77299	-252.84709	1306.42261	-158.73112	-383.80994	1532.50891	-289.70959	-42.63525	1253.91040	-378.99310	-587.79242	1162.93274	-55.48078	-26.00086	1023.70959	-281.60355	-511.64026	1018.37048	126.07854	-105.36581	946.12469	-259.10388	-340.35870	920.87610	-101.12016	-339.94907	1002.28784	-432.77847	-83.12730	509.64777	-294.01703	-420.25156	491.76630	-146.34480	-138.13043	115.49027	-418.01212	-414.49341	94.58941	-196.70192	
382	3.810	-251.76175	1433.83496	39.25034				-161.89682	1583.37451	-77.83652	-365.60324	1532.55249	21.06598	-134.96165	1531.98120	-303.39972	-465.49457	1420.42639	-86.12875	-251.98285	1306.12195	-158.70799	-384.13031	1532.85730	-286.58459	-44.05280	1254.43396	-380.51752	-583.66254	1161.91394	-50.43581	-26.42782	1023.84967	-283.28049	-501.75717	1017.36359	129.16655	-106.30651	946.56274	-260.66629	-338.80212	920.78314	-99.84042	-341.40948	1002.92358	-432.51047	-83.48949	510.04648	-295.91656	-420.05563	491.68515	-143.81917	-135.90442	114.53619	-413.89453	-414.43008	94.55476	-196.67969	
383	3.820	-247.79413	1433.63110	40.17702				-159.30313	1582.94421	-75.65089	-361.45139	1532.21765	24.00853	-135.29802	1532.13940	-303.58731	-463.43552	1419.84338	-82.64852	-250.14317	1306.48511	-157.66812	-384.20175	1533.00745	-284.03781	-44.85525	1253.73560	-383.08554	-579.52570	1160.42566	-44.88211	-25.77812	1025.71606	-282.87976	-492.54675	1016.30908	132.46794	-106.58562	946.20062	-261.04874	-336.68054	920.59912	-98.36736	-342.60846	1003.00311	-430.51990	-83.27997	510.24982	-297.33084	-418.78918	491.80255	-140.87427	-132.54083	113.43337	-409.38568	-414.22452	94.71147	-196.66153	
384	3.830	-243.49924	1433.19885	41.22601				-156.70790	1583.04883	-76.45601	-358.54404	1532.02844	25.94080	-135.53918	1532.29895	-303.70288	-461.63583	1418.53491	-85.45234	-248.74495	1306.52612	-156.73956	-384.43704	1532.77051	-281.35159	-46.92004	1254.51453	-384.36487	-571.92670	1159.76404	-38.54357	-25.33855	1025.11365	-284.35376	-482.56650	1016.01886	135.51494	-106.89362	946.31427	-262.54678	-335.51154	920.43036	-97.20563	-344.24725	1003.52222	-429.27048	-83.33463	510.84555	-299.38541	-418.02332	491.50815	-138.55887	-129.39987	111.77681	-405.64694	-414.18512	94.69242	-196.61951	
385	3.840	-239.30516	1433.26758	41.90301				-154.65506	1583.49438	-77.94218	-354.15268	1531.56665	27.97152	-135.88089	1532.28906	-304.68390	-458.18112	1419.60620	-75.40549	-247.64029	1306.35510	-156.04469	-384.54541	1532.99609	-278.21136	-48.10181	1254.35779	-386.23581	-566.74396	1158.56372	-33.80431	-25.42168	1025.59302	-286.22913	-472.71030	1015.64557	137.98813	-107.12480	946.10901	-263.90335	-334.47067	920.28503	-96.06925	-345.63168	1003.73956	-427.74167	-82.90927	511.49200	-300.53604	-416.97018	491.25128	-136.33611	-126.02988	110.29987	-401.76685	-414.13129	94.65842	-196.62788	
386	3.850	-234.35878	1432.91589	42.01460				-151.71063	1583.66211	-79.54995	-349.65430	1531.65747	30.38733	-136.18153	1531.95935	-304.40927	-456.56305	1419.37952	-72.31911	-246.10408	1305.83765	-155.57907	-384.11847	1533.13293	-275.81024	-49.21805	1254.64429	-387.63986	-560.97516	1157.74377	-28.52257	-25.05771	1025.78613	-288.85696	-463.03586	1014.69647	140.27524	-107.50038	945.49030	-265.13593	-332.41354	919.41168	-94.07332	-346.93842	1003.90131	-426.76865	-82.49436	511.64548	-302.64371	-415.24307	490.08328	-133.33066	-122.84034	108.84636	-396.93976	-414.02029	94.62031	-196.60858	
387	3.860	-229.82846	1433.06494	42.48491				-149.34743	1583.96155	-80.43050	-345.03802	1530.57776	32.83117	-136.17192	1532.12805	-305.77292	-453.91803	1418.06885	-75.13290	-244.90402	1305.54651	-155.03622	-383.90994	1533.46350	-274.31219	-50.19911	1254.70020	-389.58435	-555.66998	1157.01807	-23.26634	-25.05288	1025.57410	-289.72083	-452.13663	1013.41132	143.82336	-107.90192	945.45428	-265.91562	-327.61224	920.29230	-94.04591	-348.68976	1004.01086	-424.98389	-81.63665	511.82544	-305.10760	-414.65402	489.95657	-131.35204	-119.31736	107.38953	-392.12720	-413.98035	94.61552	-196.58415	
388	3.870	-225.04022	1432.80005	42.86830				-146.24825	1584.20569	-82.26409	-341.20959	1531.52039	34.12102	-136.06744	1531.68188	-306.14227	-450.72873	1417.65186	-73.27618	-242.54808	1305.64551	-154.55576	-383.64719	1532.97913	-271.45865	-51.28118	1254.21497	-391.08615	-549.90405	1156.26770	-19.29790	-24.88793	1025.27881	-292.76935	-441.80063	1012.32373	145.84102	-108.59702	945.18036	-267.20526	-326.90445	920.16980	-94.77855	-350.04736	1004.34308	-423.60306	-80.72302	511.60178	-307.10001	-413.48007	490.68179	-128.30452	-115.25045	106.44457	-387.76349	-413.93521	94.61275	-196.58157	
389	3.880	-220.04356	1432.59863	43.14193				-143.45810	1584.07898	-81.65830	-336.25729	1530.34570	36.88547	-136.02176	1531.53516	-306.24509	-448.15991	1416.98743	-69.31614	-241.76004	1305.87463	-153.81677	-382.40433	1532.75928	-269.15042	-52.26365	1254.24402	-392.60468	-543.24280	1155.18176	-13.91151	-25.13171	1025.34631	-295.05600	-431.91147	1012.10760	148.15163	-108.07507	944.98413	-268.63345	-326.60416	919.22449	-91.32001	-351.19754	1004.73383	-422.29880	-80.55801	511.42062	-308.90979	-412.76086	490.61420	-125.89057	-112.02290	104.50351	-383.13965	-413.89383	94.56400	-196.57996	
390	3.890	-214.91646	1432.29968	43.02943				-140.77841	1584.54504	-83.62292	-331.46561	1530.22192	38.21527	-135.96373	1531.39673	-306.95117	-444.08527	1419.30371	-60.37813	-239.57089	1305.94885	-153.28471	-382.42917	1533.10071	-267.31158	-53.27969	1254.34265	-395.07211	-537.32269	1154.78064	-9.92328	-25.36242	1025.40698	-297.11392	-421.34265	1011.78265	149.34903	-108.41624	944.77997	-269.22925	-320.89188	921.03027	-89.64835	-351.93945	1003.74615	-419.88550	-79.52142	511.72058	-311.47342	-411.62030	490.17810	-123.00478	-108.01308	103.89892	-378.49545	-413.68365	94.30346	-196.43817	
391	3.900	-210.19650	1432.66309	43.01418				-136.98965	1583.92578	-81.53375	-327.33633	1530.12134	39.52404	-135.87012	1531.11694	-308.07986	-441.69232	1418.85486	-56.92311	-238.47655	1305.42004	-153.90282	-380.96652	1532.85217	-264.85181	-53.83382	1253.67029	-396.80331	-530.57147	1153.82446	-5.94768	-25.18890	1024.87817	-299.68945	-410.83969	1011.34241	151.04825	-107.74484	944.67181	-269.97174	-319.01968	920.94714	-89.39565	-352.92957	1003.66650	-418.74490	-78.86288	511.73602	-313.30359	-409.61978	490.00076	-119.41172	-104.51079	103.36791	-374.86490	-413.65625	94.30336	-196.43468	
392	3.910	-205.50060	1432.64978	43.03861				-135.12544	1585.08887	-86.05608	-322.35187	1529.82007	40.91160	-135.14005	1531.00330	-308.59360	-437.90634	1419.24402	-54.52358	-236.31235	1305.18689	-153.01086	-380.70282	1533.32458	-263.75708	-54.12949	1253.94653	-402.60443	-524.09894	1153.40503	-1.43068	-24.84584	1024.47754	-301.49030	-400.28040	1011.48138	152.78281	-108.55344	944.70990	-271.60767	-316.56412	921.09583	-89.16921	-354.27142	1003.81805	-416.87509	-78.28024	511.63428	-315.30853	-408.18158	490.55908	-116.25257	-101.02858	102.27357	-370.80231	-413.62131	94.25655	-196.43845	
393	3.920	-200.72229	1432.81689	42.63756							-317.47256	1529.75012	42.24951	-134.62971	1530.51074	-308.83722	-434.05347	1418.92822	-52.14162	-233.91704	1304.96570	-153.34575	-379.25400	1533.15918	-261.08612	-54.79430	1253.60547	-402.82788	-517.93933	1152.89282	1.98075	-25.36628	1024.07715	-304.23929	-389.34351	1010.57098	153.74338	-108.10760	944.13385	-272.88754	-314.14951	920.59338	-87.94232	-355.37494	1004.03790	-416.02698	-77.49499	511.76358	-317.68735	-407.02277	489.69809	-114.80984	-98.44407	100.74721	-366.73459	-413.58929	94.22511	-196.44247	
394	3.930	-195.64766	1432.73999	42.27613							-312.64291	1529.88635	42.66121	-134.02052	1529.96509	-310.21606	-430.66721	1417.03027	-57.14333	-231.69966	1304.89795	-153.11621	-378.37854	1533.13831	-259.75558	-55.54047	1252.96423	-404.05911	-510.83228	1152.22839	5.99716	-24.71013	1023.76599	-307.11505	-378.93484	1010.73566	154.68347	-107.14594	944.18427	-273.95789	-312.25937	920.57654	-87.65932	-356.25070	1004.07098	-414.14069	-76.99811	511.57419	-320.12323	-406.37411	490.03214	-113.59109	-95.20315	100.30054	-363.32037	-413.58716	94.22079	-196.46007	
395	3.940	-191.37830	1433.20532	42.01337							-306.93710	1528.35156	43.38192	-133.41229	1529.98987	-313.14273	-427.34335	1418.08496	-53.01818	-230.07663	1305.05396	-153.60156	-377.14825	1533.10388	-258.14670	-56.19306	1252.60535	-405.12317	-503.64020	1151.78528	10.19996	-24.86550	1023.24005	-309.47974	-367.61551	1010.21600	155.23355	-107.17146	944.15741	-275.64462	-309.78662	920.57867	-87.11665	-357.04651	1004.03149	-413.68024	-75.90257	511.22098	-321.71094	-404.34052	490.67258	-109.79996	-93.95601	99.07072	-359.76852	-413.57578	94.20567	-196.45905	
396	3.950	-185.65820	1432.58777	41.33643							-302.74121	1528.46545	42.84935	-132.81604	1529.60559	-313.99176	-423.19434	1417.92493	-51.38460	-227.90901	1304.44104	-153.45857	-375.82935	1533.03357	-256.49704	-57.29200	1252.07446	-407.11984	-496.23358	1151.08032	13.83121	-24.02729	1022.78790	-312.21570	-356.71936	1010.21686	155.73875	-106.79819	943.44055	-276.77112	-307.33029	920.48846	-86.71931	-358.01279	1004.21576	-411.96118	-75.38919	510.68262	-324.42062	-402.94150	489.68777	-107.64925	-91.27802	98.79800	-357.27191	-413.56500	94.22304	-196.45517	
397	3.960	-180.55203	1433.12646	40.25568							-299.04276	1528.60620	42.96090	-131.88496	1529.39355	-315.46710	-418.88257	1416.96277	-49.82842	-225.34618	1304.66968	-153.83600	-374.60501	1532.97205	-255.10207	-58.41031	1251.85022	-407.98434	-488.92908	1150.44141	17.34595	-23.59944	1022.35724	-315.10861	-345.81311	1010.23529	156.36853	-105.51118	943.07556	-278.04156	-304.86093	920.12494	-86.09325	-358.54816	1004.31940	-410.97021	-74.96604	510.62396	-326.31152	-402.41849	489.19077	-106.10061	-89.36575	98.11030	-354.43671	-413.52548	94.20485	-196.44966	
